<svg id="Layer_27" data-name="Layer 27" xmlns="http://www.w3.org/2000/svg" xmlns:xlink="http://www.w3.org/1999/xlink" viewBox="0 0 1368 936"><defs><style>.cls-1,.cls-2{fill:none;}.cls-2{stroke:red;stroke-width:5.04px;}.cls-3{font-size:200px;}.cls-3,.cls-4{font-family:Formular-Bold, Formular;font-weight:700;}.cls-3,.cls-5{fill:url(#_10_lpi_70_);}.cls-4{font-size:18px;fill:red;}.cls-6{fill:#fff;stroke:#fff;stroke-miterlimit:10;stroke-width:3px;}</style><pattern id="_10_lpi_70_" data-name="10 lpi 70%" width="72" height="72" patternTransform="translate(-4400.97 3900.7) rotate(-45) scale(1.5)" patternUnits="userSpaceOnUse" viewBox="0 0 72 72"><rect class="cls-1" width="72" height="72"/><line class="cls-2" x1="71.75" y1="68.4" x2="144.25" y2="68.4"/><line class="cls-2" x1="71.75" y1="54" x2="144.25" y2="54"/><line class="cls-2" x1="71.75" y1="39.6" x2="144.25" y2="39.6"/><line class="cls-2" x1="71.75" y1="25.2" x2="144.25" y2="25.2"/><line class="cls-2" x1="71.75" y1="10.8" x2="144.25" y2="10.8"/><line class="cls-2" x1="71.75" y1="61.2" x2="144.25" y2="61.2"/><line class="cls-2" x1="71.75" y1="46.8" x2="144.25" y2="46.8"/><line class="cls-2" x1="71.75" y1="32.4" x2="144.25" y2="32.4"/><line class="cls-2" x1="71.75" y1="18" x2="144.25" y2="18"/><line class="cls-2" x1="71.75" y1="3.6" x2="144.25" y2="3.6"/><line class="cls-2" x1="-0.25" y1="68.4" x2="72.25" y2="68.4"/><line class="cls-2" x1="-0.25" y1="54" x2="72.25" y2="54"/><line class="cls-2" x1="-0.25" y1="39.6" x2="72.25" y2="39.6"/><line class="cls-2" x1="-0.25" y1="25.2" x2="72.25" y2="25.2"/><line class="cls-2" x1="-0.25" y1="10.8" x2="72.25" y2="10.8"/><line class="cls-2" x1="-0.25" y1="61.2" x2="72.25" y2="61.2"/><line class="cls-2" x1="-0.25" y1="46.8" x2="72.25" y2="46.8"/><line class="cls-2" x1="-0.25" y1="32.4" x2="72.25" y2="32.4"/><line class="cls-2" x1="-0.25" y1="18" x2="72.25" y2="18"/><line class="cls-2" x1="-0.25" y1="3.6" x2="72.25" y2="3.6"/><line class="cls-2" x1="-72.25" y1="68.4" x2="0.25" y2="68.4"/><line class="cls-2" x1="-72.25" y1="54" x2="0.25" y2="54"/><line class="cls-2" x1="-72.25" y1="39.6" x2="0.25" y2="39.6"/><line class="cls-2" x1="-72.25" y1="25.2" x2="0.25" y2="25.2"/><line class="cls-2" x1="-72.25" y1="10.8" x2="0.25" y2="10.8"/><line class="cls-2" x1="-72.25" y1="61.2" x2="0.25" y2="61.2"/><line class="cls-2" x1="-72.25" y1="46.8" x2="0.25" y2="46.8"/><line class="cls-2" x1="-72.25" y1="32.4" x2="0.25" y2="32.4"/><line class="cls-2" x1="-72.25" y1="18" x2="0.25" y2="18"/><line class="cls-2" x1="-72.25" y1="3.6" x2="0.25" y2="3.6"/></pattern></defs><text class="cls-3" transform="translate(841.87 376.41)">01</text><text class="cls-4" transform="translate(856.95 413.69)">arcade : wave connection</text><polygon class="cls-5" points="1006.29 526.25 1046.29 486.75 785.11 427.41 785.11 415.41 744.82 409.84 766.82 432.22 657.11 450.89 691.18 451.57 693.93 455.11 692.9 456.07 696.67 459.33 698 470.26 706.44 470.77 707.69 474.71 779 470.78 893.18 470.7 1006.29 526.25"/><line class="cls-6" x1="837.19" y1="445.3" x2="837.19" y2="470.7"/><line class="cls-6" x1="824.49" y1="458" x2="849.89" y2="458"/></svg>