<svg id="Layer_40" data-name="Layer 40" xmlns="http://www.w3.org/2000/svg" viewBox="0 0 1728 1260"><defs><style>.cls-1{fill:#ff4f0a;}</style></defs><rect class="cls-1" x="30.7" y="24.27" width="222.22" height="137.07"/><path class="cls-1" d="M927.88,539.65c5,18.05,11.09,37.63,26.65,48.07,9.65,6.48,21.61,8.41,32.06,13.5,7.46,3.63,14.16,8.88,22,11.58s17.74,2.16,23-4.3l-24,34.79c-2.46,3.56-5,7.75-4,11.94s5.19,6.52,7.68,9.94c9.11,12.5-6.23,31.69,1.68,45,6.09,10.22,24.53,15.25,20.58,26.46-1,2.74-3.25,4.78-5.45,6.7-22,19.12-44.4,38.08-70,52s-54.8,22.6-83.78,19.69c-5.76-19.83-10.79-43.52,2.59-59.24,9.46-11.11,28-19.73,24-33.75-2.52-8.76-12.74-12.22-19.79-18-9.9-8.08-13.74-21.17-18.62-33s-12.82-24.2-25.39-26.48c.79-14.81,1.39-30.48-5.63-43.54s-24.62-21.65-37.19-13.78c-19.47,12.19-9.1,47.7-28.12,60.57-4.92,3.34-11,4.42-16.26,7.28C742.23,659.29,737.09,667,730,672a14.14,14.14,0,0,1-20.75-4.18c-1.9-3.06-9.44-3.94-9.88-.36-1.18,6.23,9.64,1.53,9.21,7.19-1.77,23.1-27.85,35-49.9,42-6.35,2-13.43,4-19.47,1.22-6.56-3.07-9.81-10.95-16.36-14-11.42-5.37-22.85,6.3-32.74,14.15a62.77,62.77,0,0,1-28.28,12.63c-4.14.71-8.56,1-12.42-.71-5.1-2.21-8.26-7.35-12.8-10.55-7.84-5.53-18.42-4.54-27.83-2.71A221.88,221.88,0,0,0,416,758.59c-4.93,3.8-9.9,7.91-15.93,9.45-14.5,3.71-27.84-8.36-38-19.39l-68.66-74.82c-7.58-8.25-15.4-16.93-18.44-27.72-5.41-19.21,6.43-39.92,23-51.11s36.82-15,56.47-18.49c8.69-1.56,17.87-3.09,26.15,0,13.93,5.12,20.25,20.76,29.48,32.37,11.35,14.27,28.57,23.65,37.42,39.58,6.61,11.89,9.32,28,21.85,33.29,17.26,7.31,33.72-12.84,52.23-15.83,26.87-4.33,54.75,27.93,77.73,13.33,7.14-4.53,11.41-12.79,18.82-16.86,10.42-5.73,23.18-1.54,34.85.77s26.77.71,31.08-10.38c1.7-4.39,1.2-9.35,2.5-13.88,2.73-9.6,12.53-15.1,21.48-19.51q54-26.64,109.42-50.16c17-7.19,34.59-16.48,52.37-21.34C888.2,542.81,909,542.24,927.88,539.65Z"/></svg>